<?xml version="1.0" encoding="UTF-8" standalone="no"?>
<svg width="303px" height="356px" viewBox="0 0 303 356" version="1.1" xmlns="http://www.w3.org/2000/svg" xmlns:xlink="http://www.w3.org/1999/xlink" xmlns:sketch="http://www.bohemiancoding.com/sketch/ns">
    <!-- Generator: Sketch 3.5.2 (25235) - http://www.bohemiancoding.com/sketch -->
    <title>BioIcon</title>
    <desc>Created with Sketch.</desc>
    <defs>
        <path id="path-1" d="M0.824,0.194 L159.865,0.194 L159.865,138.897 L0.824,138.897 L0.824,0.194 Z"></path>
        <path id="path-3" d="M0.06,0.733 L302.281,0.733 L302.281,356 L0.06,356 L0.06,0.733 Z"></path>
    </defs>
    <g id="Page-1" stroke="none" stroke-width="1" fill="none" fill-rule="evenodd" sketch:type="MSPage">
        <g id="BioIcon" sketch:type="MSLayerGroup">
            <g id="Group-3" transform="translate(70.000000, 101.000000)">
                <mask id="mask-2" sketch:name="Clip 2" fill="white">
                    <use xlink:href="#path-1"></use>
                </mask>
                <g id="Clip-2"></g>
                <path d="M146.973,110.683 C145.608,113.091 143.661,114.214 140.872,114.214 C134.35,114.214 124.297,108.034 112.256,96.696 C130.879,99.024 144.504,104.663 146.952,109.078 C147.313,109.719 147.313,110.061 146.973,110.683 L146.973,110.683 Z M77.42,88.705 C75.25,89.05 71.701,89.511 69.491,89.733 C65.5,90.134 61.407,90.756 57.27,91.619 C57.436,91.273 57.616,90.937 57.794,90.595 C63.955,78.475 67.765,63.944 69.195,47.291 C74.852,63.124 82.239,76.288 91.186,86.542 C91.447,86.843 91.728,87.165 91.988,87.465 C86.809,87.587 81.936,88.027 77.42,88.705 L77.42,88.705 Z M14.329,129.886 C12.584,129.886 11.099,129.184 9.634,127.659 C9.034,127.032 8.909,126.515 9.152,125.632 C10.595,120.416 22.637,111.486 40.256,104.978 C30.3,120.696 20.77,129.886 14.329,129.886 L14.329,129.886 Z M154.137,105.104 C148.638,95.171 124.537,88.83 103.267,87.641 C101.34,85.579 99.394,83.412 97.387,81.144 C79.083,60.237 71.681,29.835 68.932,13.739 C68.588,10.328 68.229,7.498 67.926,5.371 C67.69,3.708 67.166,0.194 63.514,0.194 C62.352,0.194 61.226,0.696 60.426,1.581 C59.122,3.066 59.322,4.669 59.542,6.512 C59.799,8.622 60.205,11.449 60.744,14.68 C62.312,31.017 63.049,62.143 50.47,86.863 C49.143,89.432 47.839,91.9 46.554,94.268 C23.016,101.111 4.015,113.326 1.226,123.445 C0.222,127.118 1.108,130.629 3.696,133.359 C6.722,136.509 10.298,138.115 14.329,138.115 C25.467,138.115 38.171,125.712 52.058,101.271 C58.258,99.646 64.396,98.503 70.334,97.9 C72.642,97.659 76.396,97.178 78.682,96.817 C85.028,95.853 92.209,95.452 99.574,95.692 C116.65,113.432 130.598,122.422 141.053,122.422 C146.671,122.422 151.307,119.693 154.137,114.716 C155.861,111.646 155.882,108.234 154.137,105.104 L154.137,105.104 Z" id="Fill-1" fill="#1A1918" sketch:type="MSShapeGroup" mask="url(#mask-2)"></path>
            </g>
            <g id="Group-6">
                <mask id="mask-4" sketch:name="Clip 5" fill="white">
                    <use xlink:href="#path-3"></use>
                </mask>
                <g id="Clip-5"></g>
                <path d="M279.729,339.293 L20.91,339.293 C19.984,339.293 16.7,339.028 16.7,334.462 L16.7,23.284 C16.7,20.108 19.381,17.433 22.551,17.433 L166.369,17.433 C168.807,17.433 173.89,18.726 173.89,25.682 L173.89,94.132 C173.89,106.567 184.006,116.684 196.441,116.684 L281.399,116.684 C282.951,116.684 285.575,117.75 285.575,121.502 L285.581,333.441 C285.581,336.67 282.957,339.293 279.729,339.293 L279.729,339.293 Z M190.59,34.789 C190.59,29.265 195.166,33.507 195.166,33.507 L267.633,95.423 C267.633,95.423 272.271,99.989 264.321,99.989 L196.441,99.989 C193.214,99.989 190.59,97.359 190.59,94.132 L190.59,34.789 L190.59,34.789 Z M288.267,86.843 L196.842,11.655 C189.27,5.427 176.169,0.733 166.369,0.733 L22.551,0.733 C10.116,0.733 0,10.849 0,23.284 L0,332.771 C0,356 21.965,356 22.489,356 L279.729,356 C292.165,356 302.281,345.883 302.281,333.441 L302.281,116.515 C302.281,106.167 296.256,93.41 288.267,86.843 L288.267,86.843 Z" id="Fill-4" fill="#1A1918" sketch:type="MSShapeGroup" mask="url(#mask-4)"></path>
            </g>
            <path d="M122.01,293.646 C126.461,293.646 129.164,291.897 129.164,288.559 L129.164,288.453 C129.164,285.326 126.673,283.471 121.533,283.471 L111.199,283.471 L111.199,293.646 L122.01,293.646 L122.01,293.646 Z M120.102,277.96 C124.289,277.96 127.097,276.317 127.097,272.925 L127.097,272.82 C127.097,269.905 124.766,268.103 120.579,268.103 L111.199,268.103 L111.199,277.96 L120.102,277.96 L120.102,277.96 Z M104.787,262.327 L121.427,262.327 C125.667,262.327 129.005,263.493 131.125,265.613 C132.768,267.255 133.616,269.269 133.616,271.759 L133.616,271.866 C133.616,276.317 131.072,278.702 128.316,280.132 C132.662,281.617 135.683,284.107 135.683,289.141 L135.683,289.248 C135.683,295.872 130.224,299.422 121.957,299.422 L104.787,299.422 L104.787,262.327 L104.787,262.327 Z" id="Fill-7" fill="#1A1918" sketch:type="MSShapeGroup"></path>
            <path d="M143.423,262.327 L149.941,262.327 L149.941,299.422 L143.423,299.422 L143.423,262.327 Z" id="Fill-8" fill="#1A1918" sketch:type="MSShapeGroup"></path>
            <path d="M190.165,280.981 L190.165,280.875 C190.165,273.668 184.918,267.679 177.553,267.679 C170.186,267.679 165.046,273.561 165.046,280.768 L165.046,280.875 C165.046,288.082 170.292,294.07 177.658,294.07 C185.024,294.07 190.165,288.188 190.165,280.981 L190.165,280.981 Z M158.209,280.981 L158.209,280.875 C158.209,270.435 166.265,261.691 177.658,261.691 C189.053,261.691 197.001,270.329 197.001,280.768 L197.001,280.875 C197.001,291.314 188.945,300.058 177.553,300.058 C166.158,300.058 158.209,291.421 158.209,280.981 L158.209,280.981 Z" id="Fill-9" fill="#1A1918" sketch:type="MSShapeGroup"></path>
        </g>
    </g>
</svg>